<svg width="48" height="48" viewBox="0 0 48 48" fill="inherit" xmlns="http://www.w3.org/2000/svg">
<circle cx="24" cy="24" r="24" fill="inherit"/>
<path d="M31.4 23.525C31.3405 23.3715 31.2513 23.2314 31.1375 23.1125L24.8875 16.8625C24.771 16.7459 24.6326 16.6535 24.4803 16.5904C24.328 16.5273 24.1648 16.4949 24 16.4949C23.6671 16.4949 23.3479 16.6271 23.1125 16.8625C22.996 16.979 22.9035 17.1174 22.8404 17.2697C22.7773 17.422 22.7449 17.5852 22.7449 17.75C22.7449 18.0829 22.8771 18.4021 23.1125 18.6375L27.2375 22.75H17.75C17.4185 22.75 17.1005 22.8817 16.8661 23.1161C16.6317 23.3505 16.5 23.6685 16.5 24C16.5 24.3315 16.6317 24.6495 16.8661 24.8839C17.1005 25.1183 17.4185 25.25 17.75 25.25H27.2375L23.1125 29.3625C22.9953 29.4787 22.9023 29.6169 22.8389 29.7693C22.7754 29.9216 22.7428 30.085 22.7428 30.25C22.7428 30.415 22.7754 30.5784 22.8389 30.7307C22.9023 30.883 22.9953 31.0213 23.1125 31.1375C23.2287 31.2546 23.367 31.3476 23.5193 31.4111C23.6716 31.4746 23.835 31.5072 24 31.5072C24.165 31.5072 24.3284 31.4746 24.4807 31.4111C24.633 31.3476 24.7713 31.2546 24.8875 31.1375L31.1375 24.8875C31.2513 24.7686 31.3405 24.6284 31.4 24.475C31.525 24.1707 31.525 23.8293 31.4 23.525Z" fill="white"/>
</svg>
