<svg width="52" height="52" viewBox="0 0 52 52" fill="inherit" xmlns="http://www.w3.org/2000/svg">
<path d="M43.3338 17.7234V6.50004C43.3338 5.92541 43.1055 5.3743 42.6992 4.96798C42.2929 4.56165 41.7418 4.33337 41.1671 4.33337C40.5925 4.33337 40.0414 4.56165 39.6351 4.96798C39.2287 5.3743 39.0005 5.92541 39.0005 6.50004V17.7234C37.7456 18.1788 36.6615 19.0096 35.8953 20.1027C35.1291 21.1959 34.7181 22.4984 34.7181 23.8334C34.7181 25.1683 35.1291 26.4709 35.8953 27.564C36.6615 28.6572 37.7456 29.4879 39.0005 29.9434V45.5C39.0005 46.0747 39.2287 46.6258 39.6351 47.0321C40.0414 47.4384 40.5925 47.6667 41.1671 47.6667C41.7418 47.6667 42.2929 47.4384 42.6992 47.0321C43.1055 46.6258 43.3338 46.0747 43.3338 45.5V29.9434C44.5886 29.4879 45.6728 28.6572 46.439 27.564C47.2052 26.4709 47.6162 25.1683 47.6162 23.8334C47.6162 22.4984 47.2052 21.1959 46.439 20.1027C45.6728 19.0096 44.5886 18.1788 43.3338 17.7234ZM41.1671 26C40.7386 26 40.3197 25.873 39.9634 25.6349C39.6071 25.3968 39.3294 25.0584 39.1654 24.6625C39.0014 24.2666 38.9585 23.831 39.0421 23.4107C39.1257 22.9904 39.3321 22.6043 39.6351 22.3013C39.9381 21.9983 40.3241 21.7919 40.7444 21.7083C41.1647 21.6247 41.6004 21.6676 41.9963 21.8316C42.3922 21.9956 42.7306 22.2733 42.9687 22.6296C43.2067 22.9859 43.3338 23.4048 43.3338 23.8334C43.3338 24.408 43.1055 24.9591 42.6992 25.3654C42.2929 25.7718 41.7418 26 41.1671 26ZM28.1671 30.7234V6.50004C28.1671 5.92541 27.9389 5.3743 27.5325 4.96798C27.1262 4.56165 26.5751 4.33337 26.0005 4.33337C25.4258 4.33337 24.8747 4.56165 24.4684 4.96798C24.0621 5.3743 23.8338 5.92541 23.8338 6.50004V30.7234C22.579 31.1788 21.4948 32.0096 20.7286 33.1027C19.9625 34.1959 19.5514 35.4984 19.5514 36.8334C19.5514 38.1683 19.9625 39.4709 20.7286 40.564C21.4948 41.6572 22.579 42.4879 23.8338 42.9434V45.5C23.8338 46.0747 24.0621 46.6258 24.4684 47.0321C24.8747 47.4384 25.4258 47.6667 26.0005 47.6667C26.5751 47.6667 27.1262 47.4384 27.5325 47.0321C27.9389 46.6258 28.1671 46.0747 28.1671 45.5V42.9434C29.422 42.4879 30.5061 41.6572 31.2723 40.564C32.0385 39.4709 32.4495 38.1683 32.4495 36.8334C32.4495 35.4984 32.0385 34.1959 31.2723 33.1027C30.5061 32.0096 29.422 31.1788 28.1671 30.7234ZM26.0005 39C25.5719 39 25.153 38.873 24.7967 38.6349C24.4404 38.3968 24.1627 38.0584 23.9987 37.6625C23.8347 37.2666 23.7918 36.831 23.8754 36.4107C23.959 35.9904 24.1654 35.6043 24.4684 35.3013C24.7714 34.9983 25.1575 34.7919 25.5778 34.7083C25.9981 34.6247 26.4337 34.6676 26.8296 34.8316C27.2255 34.9956 27.5639 35.2733 27.802 35.6296C28.0401 35.9859 28.1671 36.4049 28.1671 36.8334C28.1671 37.408 27.9389 37.9591 27.5325 38.3654C27.1262 38.7718 26.5751 39 26.0005 39ZM13.0005 13.39V6.50004C13.0005 5.92541 12.7722 5.3743 12.3659 4.96798C11.9595 4.56165 11.4084 4.33337 10.8338 4.33337C10.2592 4.33337 9.70806 4.56165 9.30173 4.96798C8.89541 5.3743 8.66713 5.92541 8.66713 6.50004V13.39C7.4123 13.8455 6.32813 14.6762 5.56196 15.7694C4.79578 16.8626 4.38477 18.1651 4.38477 19.5C4.38477 20.835 4.79578 22.1375 5.56196 23.2307C6.32813 24.3238 7.4123 25.1546 8.66713 25.61V45.5C8.66713 46.0747 8.89541 46.6258 9.30173 47.0321C9.70806 47.4384 10.2592 47.6667 10.8338 47.6667C11.4084 47.6667 11.9595 47.4384 12.3659 47.0321C12.7722 46.6258 13.0005 46.0747 13.0005 45.5V25.61C14.2553 25.1546 15.3395 24.3238 16.1056 23.2307C16.8718 22.1375 17.2828 20.835 17.2828 19.5C17.2828 18.1651 16.8718 16.8626 16.1056 15.7694C15.3395 14.6762 14.2553 13.8455 13.0005 13.39ZM10.8338 21.6667C10.4053 21.6667 9.98637 21.5396 9.63006 21.3016C9.27376 21.0635 8.99605 20.7251 8.83206 20.3292C8.66807 19.9333 8.62516 19.4976 8.70876 19.0773C8.79237 18.6571 8.99872 18.271 9.30173 17.968C9.60475 17.665 9.99081 17.4586 10.4111 17.375C10.8314 17.2914 11.267 17.3343 11.6629 17.4983C12.0589 17.6623 12.3972 17.94 12.6353 18.2963C12.8734 18.6526 13.0005 19.0715 13.0005 19.5C13.0005 20.0747 12.7722 20.6258 12.3659 21.0321C11.9595 21.4384 11.4084 21.6667 10.8338 21.6667Z" fill="inherit"/>
</svg>
