<svg width="52" height="52" viewBox="0 0 52 52" fill="inherit" xmlns="http://www.w3.org/2000/svg">
<g clip-path="url(#clip0_1865_62196)">
<path d="M19.5 26C19.5 29.5967 22.4033 32.5 26 32.5C29.5967 32.5 32.5 29.5967 32.5 26C32.5 22.4033 29.5967 19.5 26 19.5C22.4033 19.5 19.5 22.4033 19.5 26Z" fill="inherit"/>
<path d="M17.334 19.5C17.334 18.3084 16.359 17.3334 15.1673 17.3334H11.029C14.019 12.155 19.609 8.66671 26.0007 8.66671C33.5623 8.66671 39.9757 13.52 42.3373 20.28C42.6407 21.125 43.4857 21.6667 44.374 21.6667C45.8473 21.6667 46.9307 20.215 46.454 18.8284C43.4857 10.3784 35.4473 4.33337 26.0007 4.33337C18.9157 4.33337 12.6107 7.75671 8.66732 13.0217V10.8334C8.66732 9.64171 7.69232 8.66671 6.50065 8.66671C5.30898 8.66671 4.33398 9.64171 4.33398 10.8334V19.5C4.33398 20.6917 5.30898 21.6667 6.50065 21.6667H15.1673C16.359 21.6667 17.334 20.6917 17.334 19.5Z" fill="inherit"/>
<path d="M34.6674 32.5C34.6674 33.6917 35.6424 34.6667 36.8341 34.6667H40.9724C37.9824 39.845 32.3924 43.3334 26.0007 43.3334C18.4391 43.3334 12.0257 38.48 9.66407 31.72C9.36074 30.875 8.51574 30.3334 7.62741 30.3334C6.15407 30.3334 5.07074 31.785 5.54741 33.1717C8.51574 41.6217 16.5541 47.6667 26.0007 47.6667C33.0857 47.6667 39.3907 44.2434 43.3341 38.9784V41.1667C43.3341 42.3584 44.3091 43.3334 45.5007 43.3334C46.6924 43.3334 47.6674 42.3584 47.6674 41.1667V32.5C47.6674 31.3084 46.6924 30.3334 45.5007 30.3334H36.8341C35.6424 30.3334 34.6674 31.3084 34.6674 32.5Z" fill="inherit"/>
</g>
<defs>
<clipPath id="clip0_1865_62196">
<rect width="52" height="52" fill="white"/>
</clipPath>
</defs>
</svg>
