<svg width="24" height="24" viewBox="0 0 24 24" xmlns="http://www.w3.org/2000/svg">
<path d="M19 3H5C3.9 3 3 3.9 3 5V19C3 20.1 3.9 21 5 21H19C20.1 21 21 20.1 21 19V5C21 3.9 20.1 3 19 3ZM19 19H5V5H19V19Z" />
<path d="M9 16V13C9 12.4477 8.55228 12 8 12C7.44772 12 7 12.4477 7 13V16C7 16.5523 7.44772 17 8 17C8.55228 17 9 16.5523 9 16Z" />
<path d="M17 16V8C17 7.44772 16.5523 7 16 7C15.4477 7 15 7.44772 15 8V16C15 16.5523 15.4477 17 16 17C16.5523 17 17 16.5523 17 16Z" />
<path d="M13 16V14C13 13.4477 12.5523 13 12 13C11.4477 13 11 13.4477 11 14V16C11 16.5523 11.4477 17 12 17C12.5523 17 13 16.5523 13 16Z" />
<path d="M11 11C11 11.5523 11.4477 12 12 12C12.5523 12 13 11.5523 13 11C13 10.4477 12.5523 10 12 10C11.4477 10 11 10.4477 11 11Z" />
</svg>
