<svg width="24" height="24" viewBox="0 0 24 24" fill="none" xmlns="http://www.w3.org/2000/svg">
<path d="M17.875 12.7678V9.42063C17.8735 7.92926 17.3392 6.48653 16.3669 5.34797C15.3946 4.2094 14.0469 3.44845 12.5625 3.19989V2.05258C12.5625 1.77342 12.4506 1.50569 12.2513 1.30829C12.052 1.1109 11.7818 1 11.5 1C11.2182 1 10.948 1.1109 10.7487 1.30829C10.5494 1.50569 10.4375 1.77342 10.4375 2.05258V3.19989C8.95312 3.44845 7.60543 4.2094 6.6331 5.34797C5.66076 6.48653 5.12653 7.92926 5.125 9.42063V12.7678C4.50498 12.985 3.96794 13.3868 3.5875 13.9182C3.20706 14.4496 3.00185 15.0846 3 15.7361V17.8413C3 18.1204 3.11194 18.3882 3.3112 18.5855C3.51046 18.7829 3.78071 18.8938 4.0625 18.8938H7.39875C7.64343 19.7858 8.17756 20.5731 8.91876 21.1345C9.65995 21.6959 10.567 22 11.5 22C12.433 22 13.34 21.6959 14.0812 21.1345C14.8224 20.5731 15.3566 19.7858 15.6012 18.8938H18.9375C19.2193 18.8938 19.4895 18.7829 19.6888 18.5855C19.8881 18.3882 20 18.1204 20 17.8413V15.7361C19.9982 15.0846 19.7929 14.4496 19.4125 13.9182C19.0321 13.3868 18.495 12.985 17.875 12.7678ZM7.25 9.42063C7.25 8.30399 7.69777 7.23308 8.4948 6.44349C9.29183 5.6539 10.3728 5.21032 11.5 5.21032C12.6272 5.21032 13.7082 5.6539 14.5052 6.44349C15.3022 7.23308 15.75 8.30399 15.75 9.42063V12.5784H7.25V9.42063ZM11.5 19.9464C11.1292 19.9442 10.7654 19.8459 10.4448 19.6612C10.1242 19.4766 9.85792 19.212 9.6725 18.8938H13.3275C13.1421 19.212 12.8758 19.4766 12.5552 19.6612C12.2346 19.8459 11.8708 19.9442 11.5 19.9464ZM17.875 16.7887H5.125V15.7361C5.125 15.4569 5.23694 15.1892 5.4362 14.9918C5.63546 14.7944 5.90571 14.6835 6.1875 14.6835H16.8125C17.0943 14.6835 17.3645 14.7944 17.5638 14.9918C17.7631 15.1892 17.875 15.4569 17.875 15.7361V16.7887Z" fill="#3A5161"/>
</svg>
