<svg width="72" height="25" viewBox="0 0 72 25" fill="none" xmlns="http://www.w3.org/2000/svg">
<path d="M12.688 9.562C13.832 8.652 14.404 7.43 14.404 5.922C14.404 4.44 13.858 3.218 12.792 2.256C11.726 1.294 10.426 0.799999 8.866 0.799999H1.69V19H9.412C10.998 19 12.35 18.506 13.442 17.518C14.534 16.53 15.08 15.256 15.08 13.722C15.08 11.876 14.274 10.472 12.688 9.562ZM8.866 4.154C10.01 4.154 10.816 5.012 10.816 6.156C10.816 7.3 9.984 8.158 8.866 8.158H5.278V4.154H8.866ZM5.278 15.646V11.356H9.412C10.634 11.356 11.518 12.266 11.518 13.488C11.518 14.736 10.634 15.646 9.412 15.646H5.278ZM21.0202 11.486H27.9102V8.106H21.0202V4.232H28.5602V0.799999H17.4322V19H28.6902V15.568H21.0202V11.486ZM29.8673 0.799999V4.232H34.7553V19H38.3433V4.232H43.2573V0.799999H29.8673ZM46.7683 4.44C47.9123 4.44 48.8483 3.504 48.8483 2.386C48.8483 1.268 47.9123 0.305999 46.7683 0.305999C45.6503 0.305999 44.7143 1.268 44.7143 2.386C44.7143 3.504 45.6503 4.44 46.7683 4.44ZM48.4583 19V6H45.1043V19H48.4583ZM61.3821 7.534C60.3941 6.26 58.9901 5.636 57.1701 5.636C55.4281 5.636 53.9201 6.312 52.6721 7.638C51.4501 8.964 50.8261 10.576 50.8261 12.5C50.8261 14.424 51.4501 16.062 52.6721 17.388C53.9201 18.714 55.4281 19.364 57.1701 19.364C58.9901 19.364 60.3941 18.74 61.3821 17.466V24.2H64.7361V6H61.3821V7.534ZM55.1941 15.152C54.5181 14.45 54.1801 13.566 54.1801 12.5C54.1801 11.434 54.5181 10.55 55.1941 9.874C55.8961 9.172 56.7541 8.834 57.7941 8.834C58.8341 8.834 59.6921 9.172 60.3681 9.874C61.0441 10.55 61.3821 11.434 61.3821 12.5C61.3821 13.566 61.0441 14.45 60.3681 15.152C59.6921 15.828 58.8341 16.166 57.7941 16.166C56.7541 16.166 55.8961 15.828 55.1941 15.152Z" fill="#001D30"/>
</svg>
