<svg width="39" height="39" viewBox="0 0 39 39" fill="none" xmlns="http://www.w3.org/2000/svg">
<path fill-rule="evenodd" clip-rule="evenodd" d="M30.5165 25.5782C28.7692 29.106 29.125 34.2524 25.4913 35.7675C21.7634 37.3218 17.7222 34.551 14.3586 32.3151C11.1881 30.2077 8.67816 27.3772 7.44855 23.7743C6.09224 19.8002 5.28851 15.3386 7.30821 11.657C9.38174 7.87731 13.4865 5.32356 17.7806 4.94063C21.6431 4.59619 24.677 7.59443 27.8488 9.82528C30.67 11.8096 34.247 13.5264 34.8229 16.9272C35.382 20.2288 32.0028 22.5775 30.5165 25.5782Z" fill="#FECFB9"/>
<path d="M20.6163 19.3444L25.6038 14.3648C25.7529 14.2157 25.8366 14.0135 25.8366 13.8027C25.8366 13.5919 25.7529 13.3897 25.6038 13.2406C25.4547 13.0916 25.2525 13.0078 25.0417 13.0078C24.8309 13.0078 24.6287 13.0916 24.4796 13.2406L19.5 18.2281L14.5204 13.2406C14.3714 13.0916 14.1692 13.0078 13.9584 13.0078C13.7475 13.0078 13.5454 13.0916 13.3963 13.2406C13.2472 13.3897 13.1635 13.5919 13.1635 13.8027C13.1635 14.0135 13.2472 14.2157 13.3963 14.3648L18.3838 19.3444L13.3963 24.324C13.3221 24.3976 13.2632 24.4851 13.223 24.5816C13.1828 24.6781 13.1621 24.7815 13.1621 24.8861C13.1621 24.9906 13.1828 25.094 13.223 25.1905C13.2632 25.287 13.3221 25.3745 13.3963 25.4481C13.4699 25.5223 13.5574 25.5812 13.6539 25.6214C13.7504 25.6616 13.8539 25.6823 13.9584 25.6823C14.0629 25.6823 14.1664 25.6616 14.2628 25.6214C14.3593 25.5812 14.4469 25.5223 14.5204 25.4481L19.5 20.4606L24.4796 25.4481C24.5532 25.5223 24.6408 25.5812 24.7372 25.6214C24.8337 25.6616 24.9372 25.6823 25.0417 25.6823C25.1462 25.6823 25.2497 25.6616 25.3462 25.6214C25.4426 25.5812 25.5302 25.5223 25.6038 25.4481C25.678 25.3745 25.7369 25.287 25.7771 25.1905C25.8173 25.094 25.838 24.9906 25.838 24.8861C25.838 24.7815 25.8173 24.6781 25.7771 24.5816C25.7369 24.4851 25.678 24.3976 25.6038 24.324L20.6163 19.3444Z" fill="#3A5161"/>
</svg>
