<svg width="39" height="39" viewBox="0 0 39 39" fill="none" xmlns="http://www.w3.org/2000/svg">
    <path fill-rule="evenodd" clip-rule="evenodd" d="M30.5165 25.4219C28.7692 28.9498 29.1249 34.0962 25.4913 35.6112C21.7634 37.1655 17.7222 34.3947 14.3585 32.1589C11.1881 30.0515 8.67813 27.2209 7.44852 23.6181C6.09221 19.6439 5.28848 15.1823 7.30818 11.5008C9.38171 7.72106 13.4865 5.16731 17.7806 4.78438C21.643 4.43994 24.6769 7.43818 27.8487 9.66903C30.67 11.6533 34.247 13.3702 34.8229 16.7709C35.382 20.0726 32.0028 22.4212 30.5165 25.4219Z" fill="#D1FADF"/>
    <path d="M24.812 15.3963C24.7384 15.3221 24.6509 15.2632 24.5544 15.223C24.4579 15.1828 24.3544 15.1621 24.2499 15.1621C24.1454 15.1621 24.042 15.1828 23.9455 15.223C23.849 15.2632 23.7615 15.3221 23.6879 15.3963L17.7899 21.3021L15.312 18.8163C15.2356 18.7425 15.1454 18.6844 15.0466 18.6455C14.9477 18.6065 14.8422 18.5874 14.7359 18.5893C14.6297 18.5911 14.5249 18.6138 14.4275 18.6562C14.33 18.6985 14.2419 18.7597 14.1681 18.8361C14.0943 18.9125 14.0362 19.0027 13.9973 19.1015C13.9583 19.2004 13.9392 19.3059 13.941 19.4122C13.9429 19.5184 13.9656 19.6232 14.008 19.7206C14.0503 19.8181 14.1114 19.9062 14.1879 19.98L17.2279 23.02C17.3015 23.0942 17.389 23.1531 17.4855 23.1933C17.582 23.2335 17.6854 23.2542 17.7899 23.2542C17.8944 23.2542 17.9979 23.2335 18.0944 23.1933C18.1909 23.1531 18.2784 23.0942 18.352 23.02L24.812 16.56C24.8924 16.4859 24.9565 16.3959 25.0004 16.2958C25.0442 16.1956 25.0669 16.0875 25.0669 15.9782C25.0669 15.8688 25.0442 15.7607 25.0004 15.6605C24.9565 15.5604 24.8924 15.4704 24.812 15.3963Z" fill="black"/>
</svg>
