<svg width="52" height="52" viewBox="0 0 52 52" fill="none" xmlns="http://www.w3.org/2000/svg">
<path d="M21.6667 41.1667H10.1833C8.14883 41.1667 6.5 39.442 6.5 37.3143V10.3523C6.5 8.22467 8.14883 6.5 10.1833 6.5H39.65C41.6845 6.5 43.3333 8.22467 43.3333 10.3523V19.5" stroke="#00131F" stroke-width="4" stroke-linecap="round" stroke-linejoin="round"/>
<path d="M19.5 15.1666H32.5" stroke="#00131F" stroke-width="4" stroke-linecap="round" stroke-linejoin="round"/>
<path d="M15.167 23.8333H32.5003" stroke="#00131F" stroke-width="4" stroke-linecap="round" stroke-linejoin="round"/>
<path d="M15.167 32.5H21.667" stroke="#00131F" stroke-width="4" stroke-linecap="round" stroke-linejoin="round"/>
<path fill-rule="evenodd" clip-rule="evenodd" d="M37.4678 44.8652L47.0315 35.3015C47.8787 34.4543 47.8787 33.0828 47.0315 32.2378L43.5952 28.8015C42.748 27.9543 41.3765 27.9543 40.5315 28.8015L30.9678 38.3652C30.5605 38.7725 30.333 39.3228 30.333 39.897V45.5H35.936C36.5102 45.5 37.0605 45.2725 37.4678 44.8652V44.8652Z" stroke="#00131F" stroke-width="4" stroke-linecap="round" stroke-linejoin="round"/>
</svg>
