<svg width="48" height="38" viewBox="0 0 48 38" fill="none" xmlns="http://www.w3.org/2000/svg">
<path d="M24.6503 19.4773C25.8064 18.4766 26.7337 17.2389 27.3692 15.8482C28.0048 14.4575 28.3337 12.9464 28.3337 11.4173C28.3337 8.54414 27.1923 5.78864 25.1606 3.75699C23.129 1.72535 20.3735 0.583985 17.5003 0.583985C14.6271 0.583985 11.8716 1.72535 9.84 3.75699C7.80836 5.78864 6.66699 8.54414 6.66699 11.4173C6.66698 12.9464 6.9959 14.4575 7.63143 15.8482C8.26697 17.2389 9.19424 18.4766 10.3503 19.4773C7.31729 20.8507 4.744 23.0686 2.93812 25.8658C1.13223 28.663 0.170181 31.9212 0.166992 35.2507C0.166992 35.8253 0.395265 36.3764 0.801594 36.7827C1.20792 37.189 1.75902 37.4173 2.33366 37.4173C2.90829 37.4173 3.45939 37.189 3.86572 36.7827C4.27205 36.3764 4.50033 35.8253 4.50033 35.2507C4.50033 31.8028 5.86996 28.4962 8.30794 26.0583C10.7459 23.6203 14.0525 22.2507 17.5003 22.2507C20.9481 22.2507 24.2547 23.6203 26.6927 26.0583C29.1307 28.4962 30.5003 31.8028 30.5003 35.2507C30.5003 35.8253 30.7286 36.3764 31.1349 36.7827C31.5413 37.189 32.0924 37.4173 32.667 37.4173C33.2416 37.4173 33.7927 37.189 34.1991 36.7827C34.6054 36.3764 34.8337 35.8253 34.8337 35.2507C34.8305 31.9212 33.8684 28.663 32.0625 25.8658C30.2566 23.0686 27.6834 20.8507 24.6503 19.4773ZM17.5003 17.9173C16.2147 17.9173 14.958 17.5361 13.8891 16.8219C12.8202 16.1076 11.9871 15.0925 11.4951 13.9048C11.0031 12.717 10.8744 11.4101 11.1252 10.1492C11.376 8.88835 11.9951 7.73017 12.9041 6.82112C13.8132 5.91208 14.9714 5.29302 16.2322 5.04221C17.4931 4.79141 18.8 4.92013 19.9878 5.4121C21.1755 5.90407 22.1906 6.73719 22.9049 7.80611C23.6191 8.87503 24.0003 10.1317 24.0003 11.4173C24.0003 13.1412 23.3155 14.7945 22.0965 16.0135C20.8775 17.2325 19.2242 17.9173 17.5003 17.9173ZM38.6037 18.6107C39.9903 17.0492 40.896 15.1203 41.2119 13.0561C41.5278 10.9918 41.2403 8.88031 40.3841 6.97565C39.528 5.07099 38.1395 3.45437 36.386 2.3204C34.6325 1.18643 32.5886 0.583426 30.5003 0.583985C29.9257 0.583985 29.3746 0.812258 28.9683 1.21859C28.5619 1.62492 28.3337 2.17602 28.3337 2.75065C28.3337 3.32529 28.5619 3.87639 28.9683 4.28272C29.3746 4.68904 29.9257 4.91732 30.5003 4.91732C32.2242 4.91732 33.8775 5.60214 35.0965 6.82112C36.3155 8.04011 37.0003 9.69341 37.0003 11.4173C36.9973 12.5553 36.6955 13.6726 36.1251 14.6574C35.5548 15.6422 34.7359 16.46 33.7503 17.029C33.4291 17.2143 33.1608 17.4789 32.9711 17.7976C32.7814 18.1163 32.6767 18.4783 32.667 18.849C32.6579 19.2168 32.7427 19.5809 32.9133 19.9069C33.0838 20.2329 33.3346 20.5101 33.642 20.7123L34.487 21.2757L34.7687 21.4273C37.3803 22.666 39.5837 24.6253 41.1191 27.0743C42.6546 29.5234 43.4582 32.3602 43.4353 35.2507C43.4353 35.8253 43.6636 36.3764 44.0699 36.7827C44.4763 37.189 45.0274 37.4173 45.602 37.4173C46.1766 37.4173 46.7277 37.189 47.1341 36.7827C47.5404 36.3764 47.7687 35.8253 47.7687 35.2507C47.7864 31.9257 46.9536 28.6515 45.3495 25.7391C43.7454 22.8267 41.4232 20.3728 38.6037 18.6107Z" fill="#00131F"/>
</svg>
